<svg width="355" height="120" viewBox="0 0 355 120" fill="none" xmlns="http://www.w3.org/2000/svg">
<path fill-rule="evenodd" clip-rule="evenodd" d="M21.5694 74.1078C10.9504 80.4678 7.19835 95.9878 13.1564 108.909C14.6144 112.071 16.0644 114.659 16.3774 114.659C17.6604 114.659 23.8924 110.085 23.8704 109.159C23.8584 108.609 23.2044 107.034 22.4184 105.659C21.6324 104.284 20.9734 101.921 20.9534 100.409C20.9194 97.7378 21.0764 97.6588 26.4184 97.6588H31.9184V103.659V109.659H36.9184H41.9184V95.1588V80.6588H36.9184H31.9184V84.6588V88.6588H26.9184C21.4924 88.6588 21.1174 88.2468 23.4794 84.8758C25.9944 81.2838 30.2784 79.6588 37.2304 79.6588H43.6414L42.6024 75.1198L41.5634 70.5818L34.1134 70.8188C27.8344 71.0198 25.8624 71.5368 21.5694 74.1078ZM126.918 90.1588V109.659H132.418H137.918L137.976 99.4088L138.035 89.1588L143.204 99.4088L148.373 109.659H154.146C157.32 109.659 159.918 109.418 159.918 109.124C159.918 108.83 157.46 103.986 154.456 98.3598L148.993 88.1308L153.456 79.9178C155.91 75.3998 157.918 71.4688 157.918 71.1818C157.918 70.8938 155.466 70.6588 152.469 70.6588H147.019L142.719 78.9088L138.418 87.1588L138.128 78.9088L137.837 70.6588H132.378H126.918V90.1588ZM164.918 74.1588C164.918 77.4918 165.085 77.6588 168.418 77.6588C171.751 77.6588 171.918 77.4918 171.918 74.1588C171.918 70.8258 171.751 70.6588 168.418 70.6588C165.085 70.6588 164.918 70.8258 164.918 74.1588ZM174.918 74.1588C174.918 77.3808 175.156 77.6588 177.918 77.6588C180.68 77.6588 180.918 77.3808 180.918 74.1588C180.918 70.9368 180.68 70.6588 177.918 70.6588C175.156 70.6588 174.918 70.9368 174.918 74.1588ZM282.27 71.5878C277.924 72.2988 271.886 76.2518 269.437 79.9888C266.882 83.8888 264.678 94.5588 265.397 99.5458C266.047 104.051 270.244 114.659 271.377 114.659C272.66 114.659 278.892 110.085 278.87 109.159C278.858 108.609 278.204 107.034 277.418 105.659C276.632 104.284 275.973 101.921 275.953 100.409C275.919 97.7378 276.076 97.6588 281.418 97.6588H286.918V103.659V109.659H291.918H296.918V95.1588V80.6588H291.918H286.918V84.6588V88.6588H281.918C276.492 88.6588 276.117 88.2468 278.479 84.8758C280.994 81.2838 285.278 79.6588 292.23 79.6588H298.641L297.611 75.1588L296.581 70.6588L291.5 70.7838C288.705 70.8528 284.551 71.2148 282.27 71.5878ZM311.251 71.7558C304.315 73.7638 300.533 82.8008 302.919 91.6618C306.137 103.615 315.222 109.659 329.967 109.659H334.918V96.1588V82.6588H327.918H320.918V87.1588C320.918 90.9918 321.214 91.6588 322.918 91.6588C324.622 91.6588 324.918 92.3258 324.918 96.1588C324.918 101.371 323.51 101.929 318.807 98.5798C315.01 95.8758 312.918 91.7148 312.918 86.8638C312.918 80.8328 314.927 79.6588 325.247 79.6588C333.042 79.6588 333.918 79.4708 333.918 77.7938C333.918 76.7678 332.985 74.7428 331.845 73.2938C329.914 70.8388 329.25 70.6648 322.095 70.7488C317.873 70.7988 312.993 71.2518 311.251 71.7558ZM82.6684 73.8618C79.4254 74.7228 78.9184 75.2498 78.9184 77.7578C78.9184 79.3538 78.4684 80.6588 77.9184 80.6588C77.3684 80.6588 76.9184 82.4588 76.9184 84.6588C76.9184 86.8588 77.3684 88.6588 77.9184 88.6588C78.5004 88.6588 78.9184 91.9548 78.9184 96.5478C78.9184 106.356 80.3604 108.616 87.1034 109.376C92.0244 109.931 91.6074 110.301 93.4634 103.73C93.8964 102.197 93.4334 101.735 91.2134 101.48C88.5234 101.171 88.4074 100.925 88.1204 94.9088C87.8294 88.7998 87.8804 88.6588 90.3704 88.6588C92.6764 88.6588 92.9184 88.2788 92.9184 84.6588C92.9184 81.0588 92.6684 80.6588 90.4184 80.6588C88.1684 80.6588 87.9184 80.2588 87.9184 76.6588C87.9184 74.4588 87.5804 72.7058 87.1684 72.7618C86.7564 72.8188 84.7314 73.3138 82.6684 73.8618ZM50.3664 84.4088C46.0364 94.6978 46.0873 102.589 50.5123 106.749C52.7983 108.899 54.1444 109.196 62.9964 109.503L72.9184 109.846V95.2528V80.6588H68.4184H63.9184V91.1588C63.9184 101.449 63.8724 101.659 61.6184 101.659C56.4994 101.659 55.5974 96.8118 58.9184 87.1588C60.0184 83.9618 60.9184 81.1908 60.9184 81.0018C60.9184 80.8138 58.8994 80.6588 56.4314 80.6588C52.1944 80.6588 51.8574 80.8668 50.3664 84.4088ZM100.171 82.2408C93.4224 85.7008 93.4904 98.8818 100.295 106.097C108.058 114.329 117.851 110.576 121.518 97.9648C123.433 91.3758 122.771 86.8088 119.45 83.6888C116.157 80.5958 105.012 79.7588 100.171 82.2408ZM162.366 84.4088C158.036 94.6978 158.087 102.589 162.512 106.749C164.798 108.899 166.144 109.196 174.996 109.503L184.918 109.846V95.2528V80.6588H180.418H175.918V91.1588C175.918 101.449 175.872 101.659 173.618 101.659C168.499 101.659 167.597 96.8118 170.918 87.1588C172.018 83.9618 172.918 81.1908 172.918 81.0018C172.918 80.8138 170.899 80.6588 168.431 80.6588C164.194 80.6588 163.857 80.8668 162.366 84.4088ZM190.918 95.0428V109.659H195.418H199.918V99.0928V88.5258L202.668 88.8428L205.418 89.1588L205.703 99.4088L205.988 109.659H210.535H215.081L214.75 97.1918C214.325 81.2368 214.438 81.3708 200.918 80.8278L190.918 80.4258V95.0428ZM226.202 81.3598C222.769 82.0248 218.918 87.2618 218.918 91.2678C218.918 99.1858 224.617 107.051 231.634 108.818C237.592 110.318 236.008 111.659 228.28 111.659H221.759L222.444 114.909C222.821 116.696 223.491 118.546 223.933 119.019C224.376 119.492 228.423 119.712 232.926 119.507C244.899 118.963 244.918 118.928 244.918 97.5478V80.6588L236.668 80.7948C232.13 80.8698 227.421 81.1238 226.202 81.3598ZM111.718 89.8588C114.278 92.4188 111.563 103.367 108.609 102.394C105.853 101.485 103.517 91.3928 105.585 89.3258C106.671 88.2388 110.424 88.5648 111.718 89.8588ZM235.918 95.1588C235.918 102.509 234.56 103.562 230.969 98.9968C226.549 93.3778 227.495 88.6588 233.04 88.6588C235.915 88.6588 235.918 88.6648 235.918 95.1588Z" fill="black"/>
<path fill-rule="evenodd" clip-rule="evenodd" d="M139.418 1.14481C128.97 2.73081 110.767 6.33881 106.418 7.68481C102.342 8.94681 76.1394 16.7038 55.4184 22.7828C44.8374 25.8868 34.6054 28.1968 28.3214 28.8998L18.2244 30.0298L19.7284 32.6508C21.8734 36.3878 20.8174 39.1258 14.0524 47.3658C3.35137 60.3978 -0.141635 68.4048 0.00436484 79.5658C0.0683648 84.4568 0.29537 85.4808 0.88437 83.5328C4.65637 71.0648 17.5494 56.0658 29.1684 50.6288C36.7294 47.0908 48.2534 44.6918 58.2564 44.5748L65.4184 44.4898L60.9514 42.4418C58.4944 41.3158 53.6564 40.1668 50.2014 39.8888C46.1204 39.5618 43.9184 38.9478 43.9184 38.1388C43.9184 37.4528 44.7054 36.6488 45.6684 36.3508C47.8324 35.6818 59.6974 30.8898 62.4184 29.5858C68.3944 26.7228 96.5754 19.4948 115.418 15.9918C129.245 13.4218 132.372 13.2028 155.418 13.1818C178.038 13.1608 181.417 13.3818 190.918 15.5028C196.693 16.7918 204.118 18.7578 207.418 19.8718C213.599 21.9588 227.739 28.6948 233.918 32.4978C237.038 34.4178 238.856 34.6518 250.668 34.6548C258.097 34.6568 263.918 34.2538 263.918 33.7358C263.918 33.2288 261.555 30.8088 258.668 28.3588C244.332 16.1938 225.543 7.6568 201.918 2.5698C193.194 0.691804 187.782 0.264803 169.918 0.0438033C155.51 -0.134197 145.449 0.229805 139.418 1.14481ZM95.9184 48.7458C105.348 52.1618 127.673 56.6848 145.918 58.8758C167.702 61.4918 212.639 61.8858 237.418 59.6768C258.761 57.7748 314.608 57.6588 324.918 59.4948C336.469 61.5518 343.71 63.5538 349.225 66.2138C351.997 67.5518 354.419 68.4918 354.607 68.3038C354.795 68.1148 352.769 65.9218 350.104 63.4298C341.684 55.5538 327.376 49.9598 309.822 47.6818C298.852 46.2578 267.966 46.5008 246.918 48.1768C212.056 50.9518 183.861 51.7138 154.184 50.6838C128.609 49.7958 105.045 48.4258 94.4184 47.2108C90.5694 46.7698 90.6254 46.8278 95.9184 48.7458Z" fill="black"/>
</svg>
