<svg width="355" height="90" viewBox="0 0 355 90" fill="none" xmlns="http://www.w3.org/2000/svg">
<path fill-rule="evenodd" clip-rule="evenodd" d="M139.418 1.14481C128.97 2.73081 110.767 6.33881 106.418 7.68481C102.342 8.94681 76.1394 16.7038 55.4184 22.7828C44.8374 25.8868 34.6054 28.1968 28.3214 28.8998L18.2244 30.0298L19.7284 32.6508C21.8734 36.3878 20.8174 39.1258 14.0524 47.3658C3.35137 60.3978 -0.141635 68.4048 0.00436484 79.5658C0.0683648 84.4568 0.29537 85.4808 0.88437 83.5328C4.65637 71.0648 17.5494 56.0658 29.1684 50.6288C36.7294 47.0908 48.2534 44.6918 58.2564 44.5748L65.4184 44.4898L60.9514 42.4418C58.4944 41.3158 53.6564 40.1668 50.2014 39.8888C46.1204 39.5618 43.9184 38.9478 43.9184 38.1388C43.9184 37.4528 44.7054 36.6488 45.6684 36.3508C47.8324 35.6818 59.6974 30.8898 62.4184 29.5858C68.3944 26.7228 96.5754 19.4948 115.418 15.9918C129.245 13.4218 132.372 13.2028 155.418 13.1818C178.038 13.1608 181.417 13.3818 190.918 15.5028C196.693 16.7918 204.118 18.7578 207.418 19.8718C213.599 21.9588 227.739 28.6948 233.918 32.4978C237.038 34.4178 238.856 34.6518 250.668 34.6548C258.097 34.6568 263.918 34.2538 263.918 33.7358C263.918 33.2288 261.555 30.8088 258.668 28.3588C244.332 16.1938 225.543 7.6568 201.918 2.5698C193.194 0.691804 187.782 0.264803 169.918 0.0438033C155.51 -0.134197 145.449 0.229805 139.418 1.14481ZM95.9184 48.7458C105.348 52.1618 127.673 56.6848 145.918 58.8758C167.702 61.4918 212.639 61.8858 237.418 59.6768C258.761 57.7748 314.608 57.6588 324.918 59.4948C336.469 61.5518 343.71 63.5538 349.225 66.2138C351.997 67.5518 354.419 68.4918 354.607 68.3038C354.795 68.1148 352.769 65.9218 350.104 63.4298C341.684 55.5538 327.376 49.9598 309.822 47.6818C298.852 46.2578 267.966 46.5008 246.918 48.1768C212.056 50.9518 183.861 51.7138 154.184 50.6838C128.609 49.7958 105.045 48.4258 94.4184 47.2108C90.5694 46.7698 90.6254 46.8278 95.9184 48.7458Z" fill="black"/>
<path d="M12 85C29 58 63.5 55 66.5 58C67 59.5 52.5 62.75 40 69C24.0188 76.9906 15 86.5 12 85Z" fill="black"/>
<path d="M300.5 89.5C302.914 82.2595 288 70 271 68C254 66 233 84.5 234 86C235 87.5 251 74.5213 271 77.5C294.5 81 300 91 300.5 89.5Z" fill="black"/>
</svg>
