<svg width="243" height="243" viewBox="0 0 243 243" fill="none" xmlns="http://www.w3.org/2000/svg">
<path fill-rule="evenodd" clip-rule="evenodd" d="M155 7.864C155 26.574 150.676 34.715 131.747 51.638C127.705 55.252 126 57.505 126 59.233C126 62.158 128.833 65 131.749 65C136.037 65 154.038 47.065 159.365 37.486C160.278 35.844 161.459 33.825 161.988 33C165.583 27.399 168.251 19.786 168.731 13.757C169.206 7.794 168.992 6.61 166.884 3.514C165.172 1 163.5 0.0070038 159.75 0.0070038C158 0.00699914 155 3.8147e-06 155 7.864ZM175.223 5.557C171.193 8.379 172.383 11.246 181.081 19.672C195.444 33.585 203.233 47.594 207.119 66.5C210.41 82.517 208.617 92.198 202.243 92.813C197.907 93.232 198.211 94.863 203.326 98.621C212.462 105.333 220.762 107.838 223.8 104.8C225.409 103.191 225.315 98.999 223.577 94.839C222.795 92.967 220.755 85.824 219.043 78.967C209.717 41.6 195.058 11.853 182.8 5.418C179.353 3.608 177.968 3.634 175.223 5.557ZM160 60.957C152.608 62.536 142.586 66.004 133.937 69.974C132.527 70.621 130.518 72.74 129.472 74.682C127.603 78.153 127.603 78.236 129.476 79.606C132.247 81.633 133.555 81.393 141.692 77.373C154.144 71.22 164.829 69.737 175.434 72.688C180.627 74.133 182.478 75.356 188.298 81.188C192.037 84.935 195.905 88 196.893 88C202.144 88 203.693 78.77 199.75 70.975C194.223 60.047 180.475 56.582 160 60.957Z" fill="#FBBD17"/>
<path fill-rule="evenodd" clip-rule="evenodd" d="M103.588 67.563C92.974 71.271 74.577 80.432 65.156 86.7C33.367 107.852 17.265 139.027 21.018 172.155C23.134 190.838 30.169 205.395 43.414 218.5C55.222 230.183 67.118 236.562 82.796 239.619C87.033 240.445 91.625 241.455 93 241.864C96.692 242.961 132.728 242.377 138.257 241.13C166.071 234.86 187.4 213.201 196.203 182.289C199.4 171.06 199.378 153.469 196.154 143C192.12 129.901 182.406 114.766 173.49 107.685C163.443 99.708 152.042 96.449 137.332 97.349C113.013 98.837 93.376 106.29 79.33 119.364C74.457 123.9 73.777 124.975 74.345 127.238C75.111 130.291 74.344 130.439 91.5 123.938C115.255 114.937 132.396 112.283 147 115.346C151.559 116.303 153 116.5 153 116.5L160.5 119L163 120.5L164 121.5L167.43 126.633C177.389 137.504 181.379 157.559 177.409 176.792C176.534 181.031 175.47 185.122 175.045 185.882C174.621 186.642 174 188.5 174 188.5C174 188.5 171.81 191.774 170 195.5C168.155 199.296 167 201 167 201C167 201 165.503 202.899 164.405 204.122C158.585 210.603 137.641 221.583 124.354 225.118C113.166 228.095 98.39 228.049 86.597 224.999C78.067 222.793 76.5 222 76.5 222L74.5 221L72.5 220L71 219L67.5 216.5C67.5 216.5 53.172 204.028 48.326 196.738C45.705 192.795 41.982 185.504 40.054 180.535C36.671 171.815 36.548 171.027 36.524 157.951C37 145.5 37.261 142.858 40.425 136.451C43.589 130.044 46.307 126.541 54.425 118.409C69.192 103.618 85.975 93.196 116.2 80.046C121.534 77.725 126.409 75.212 127.032 74.461C128.817 72.311 127.774 69.764 124.095 67.285C119.632 64.277 112.727 64.371 103.588 67.563Z" fill="#FC0101"/>
<path fill-rule="evenodd" clip-rule="evenodd" d="M154.432 118.335C152.744 119.515 149.761 122.51 147.802 124.99C142.103 132.207 127.951 148.001 127.193 147.99C126.812 147.985 124.628 144.026 122.34 139.193C116.987 127.884 113.458 124 108.533 124C106.518 124 103.997 124.466 102.933 125.036C99.674 126.78 96.182 134.703 93.581 146.25C93.241 147.762 92.617 149 92.197 149C91.776 149 90.699 147.762 89.803 146.25C88.908 144.738 85.061 140.086 81.255 135.914C74.335 128.328 74.335 128.328 70.086 129.582C60.805 132.323 58.493 137.843 58.604 157C58.73 179.01 67.321 218.009 73.551 224.857C74.58 225.988 75.152 225.848 76.979 224.021C79.173 221.827 79.173 221.827 75.612 197.163C70.661 162.877 70.324 159 72.303 159C74.081 159 80.297 166.806 87.432 178C90.062 182.125 93.144 186.513 94.281 187.75C96.843 190.538 101.32 190.68 103.944 188.056C106.288 185.712 106.737 183.064 107.429 167.5C108.02 154.228 108.62 151 110.493 151C112.852 151 117.736 165.162 126.059 196.131C128.719 206.03 129.555 207.932 131.673 208.897C133.574 209.763 134.794 209.73 136.831 208.758C139.028 207.71 139.556 206.711 139.814 203.111C140.087 199.3 138.419 188.756 136.316 181.006C135.689 178.696 136.004 178.813 140.569 182.583C143.281 184.822 150.091 190.107 155.702 194.327C168.066 203.626 170.842 204.19 173.98 198.04C177.733 190.683 176.856 189.265 162.5 179.473C157 175.721 147.381 169.054 141.124 164.657L129.747 156.663L139.124 148.161C155.232 133.556 164 124.21 164 121.647C164 119.069 161.144 115.947 158.921 116.094C158.14 116.146 156.119 117.154 154.432 118.335Z" fill="#060505"/>
</svg>
